<svg width="472" height="100" viewBox="0 0 472 100" fill="none" xmlns="http://www.w3.org/2000/svg">
<g clip-path="url(#clip0_1_3)">
<path d="M472.399 96.2125C466.286 96.4077 460.172 96.3766 454.059 96.4498C452.478 96.4687 451.951 95.8956 451.993 94.3484C452.076 91.2888 451.671 88.1723 452.128 85.1806C452.473 82.9214 453.671 80.7244 454.793 78.6657C458.185 72.4414 461.698 66.2825 465.217 60.1287C467.468 56.1926 469.813 52.3106 472.258 48.4021C472.399 64.275 472.399 80.15 472.399 96.2125Z" fill="#9EB6D9"/>
<path d="M303.721 14.1071C309.232 15.1529 314.6 16.0048 319.866 17.2788C322.59 17.9379 325.155 19.2997 327.738 20.466C328.112 20.6352 328.495 21.6144 328.34 22.0052C326.403 26.8697 324.36 31.6909 322.366 36.5324C321.895 37.6748 321.186 37.8422 320.161 37.2707C315.525 34.6861 310.498 33.1454 305.312 32.3528C300.462 31.6115 295.474 31.2018 290.814 33.2863C289.351 33.9404 287.929 35.2264 287.076 36.5915C285.365 39.3267 286.229 42.0293 289.157 43.391C291.483 44.4727 293.949 45.3117 296.426 45.9963C302.943 47.7983 309.6 49.1525 316.015 51.2561C322.917 53.5195 328.673 57.6335 331.103 64.8742C332.62 69.3916 332.534 74.1215 331.125 78.8072C328.428 87.7806 321.826 92.6721 313.526 95.5416C303.009 99.1773 292.211 98.7941 281.506 96.5168C276.485 95.4485 271.603 93.6606 266.728 91.994C265.147 91.4535 263.788 90.2619 262.235 89.3114C262.98 87.5153 263.63 85.8603 264.348 84.2352C265.852 80.8291 267.405 77.4441 268.911 74.0389C269.419 72.8901 269.944 72.6239 271.184 73.3286C279.06 77.8028 287.559 80.2489 296.611 80.2802C299.667 80.2908 302.792 79.6095 305.761 78.7897C307.848 78.2132 309.39 76.6108 309.47 74.1303C309.558 71.426 307.749 69.139 304.791 68.3211C296.621 66.0616 288.38 64.0318 280.291 61.5122C273.719 59.4651 268.108 55.8469 265.266 49.1366C262.939 43.6402 262.863 37.972 264.84 32.3884C267.836 23.9287 274.407 19.2364 282.503 16.4124C289.313 14.0367 296.399 13.7226 303.721 14.1071Z" fill="#7899CC"/>
<path d="M146.563 67.9988C146.563 67.9988 146.474 67.8963 146.501 67.6486C146.392 66.4884 146.412 65.5155 146.091 64.6735C144.642 60.8784 143.118 57.1114 141.58 53.3512C139.615 48.5494 137.626 43.7575 135.597 38.9829C135.425 38.5787 134.894 38.1259 134.49 38.0831C134.13 38.0451 133.533 38.459 133.357 38.8256C132.88 39.8214 132.616 40.9166 132.188 41.9392C130.64 45.6433 128.996 49.3085 127.505 53.0354C125.477 58.1083 123.589 63.2375 121.578 68.3178C119.809 72.7861 117.947 77.2171 116.141 81.6704C114.415 85.9257 112.695 90.1837 111 94.4512C110.549 95.5869 109.838 96.0367 108.572 96.0188C103.719 95.95 98.864 95.992 94.0099 95.9926C92.4331 95.9928 90.8564 95.9926 88.9506 95.9926C89.1411 94.9524 89.1324 94.144 89.4371 93.4798C91.0011 90.0707 92.6952 86.7214 94.248 83.3074C95.7937 79.9091 97.1701 76.4334 98.7243 73.0392C100.062 70.1188 101.657 67.3144 102.932 64.369C104.257 61.3099 105.234 58.1007 106.542 55.0336C108.426 50.6142 110.453 46.2551 112.46 41.8891C113.092 40.5131 113.963 39.2416 114.537 37.8451C115.756 34.8842 116.791 31.847 118.015 28.8884C119.364 25.6294 120.951 22.4665 122.224 19.1802C123.16 16.7653 123.932 16.008 126.476 16.0075C131.264 16.0065 136.051 16.0209 140.839 15.9919C141.538 15.9876 142.236 15.779 142.935 15.6649C143.123 15.6439 143.312 15.623 143.736 15.7325C144.564 16.3026 145.429 16.6136 145.707 17.2025C147.526 21.0682 149.177 25.0138 150.975 28.8901C151.665 30.3772 152.599 31.7511 153.421 33.1766C153.421 33.1766 153.496 33.2548 153.451 33.4735C154.87 37.3552 156.217 41.0709 157.821 44.6713C162.195 54.4865 166.718 64.2345 171.101 74.0458C173.733 79.9386 176.212 85.9002 178.786 91.8937C178.392 92.5223 178.074 93.4015 177.456 93.9296C176.504 94.7433 175.371 95.8499 174.273 95.8993C169.495 96.1141 164.701 96.0393 159.916 95.9337C159.283 95.9197 158.367 95.2627 158.093 94.6673C156.831 91.9238 155.741 89.0998 154.605 86.2986C152.707 81.6183 150.913 76.8922 148.875 72.2743C148.231 70.8163 148.699 68.6636 146.563 67.9988Z" fill="#517ABE"/>
<path d="M433.826 83.4097C432.948 84.9784 432.28 86.5328 431.258 87.8001C430.791 88.3787 429.629 88.6013 428.775 88.6193C426.524 88.6666 424.258 88.6153 422.021 88.3839C421.261 88.3052 420.291 87.7472 419.887 87.1095C415.916 80.845 411.999 74.5448 408.157 68.1994C404.797 62.6492 401.424 57.0995 398.285 51.4231C392.156 40.3396 386.184 29.169 380.156 18.0293C379.82 17.4085 379.57 16.7409 379.139 15.7794C380.068 15.6941 380.687 15.5896 381.307 15.5878C386.163 15.5741 391.019 15.6057 395.875 15.5615C397.037 15.5508 397.846 15.797 398.489 16.8986C401.025 21.2442 403.632 25.5486 406.26 29.8392C411.218 37.9325 416.215 46.001 421.179 54.0909C422.348 55.9965 423.429 57.9558 424.585 59.8697C424.95 60.4726 425.425 61.008 426.036 61.8224C426.887 60.7734 427.689 59.9968 428.241 59.0705C434.342 48.8346 440.399 38.5723 446.48 28.3243C448.779 24.4503 451.066 20.5679 453.47 16.7595C453.84 16.1725 454.804 15.6469 455.503 15.633C460.357 15.5365 465.214 15.5936 470.07 15.5773C471.611 15.5722 471.969 16.0459 471.18 17.4943C467.543 24.1747 463.975 30.8928 460.384 37.5982C457.606 42.7846 454.952 48.0422 452.026 53.1431C447.443 61.1311 442.695 69.0243 437.977 76.9337C436.689 79.0926 435.258 81.1657 433.826 83.4097Z" fill="#9EB6D9"/>
<path d="M146.558 68.1529C148.699 68.6636 148.231 70.8163 148.875 72.2743C150.913 76.8922 152.707 81.6183 154.605 86.2986C155.741 89.0998 156.831 91.9238 158.093 94.6674C158.367 95.2627 159.283 95.9197 159.916 95.9337C164.701 96.0393 169.495 96.1141 174.273 95.8993C175.371 95.8499 176.504 94.7433 177.456 93.9296C178.074 93.4015 178.392 92.5223 178.786 91.8937C176.212 85.9002 173.733 79.9386 171.101 74.0458C166.718 64.2345 162.195 54.4865 157.821 44.6713C156.217 41.0709 154.87 37.3553 153.441 33.5266C154.476 35.3477 155.555 37.2988 156.462 39.3269C160.723 48.847 164.931 58.3908 169.17 67.9209C171.894 74.0477 174.647 80.1622 177.37 86.2897C178.029 87.7725 178.621 89.2853 179.435 91.2471C181.171 89.0226 182.623 87.2524 183.977 85.4096C190.31 76.7909 196.63 68.1629 202.926 59.5173C208.127 52.3743 213.26 45.1809 218.477 38.0485C223.726 30.8706 229.031 23.733 234.349 16.6062C234.698 16.1383 235.369 15.6226 235.894 15.6184C243.477 15.5577 251.062 15.5786 258.646 15.5945C258.879 15.595 259.112 15.7528 259.636 15.9428C257.252 19.3262 254.986 22.5671 252.695 25.791C245.883 35.377 239.079 44.9687 232.239 54.5337C227.91 60.5862 223.5 66.5803 219.163 72.6272C213.898 79.9693 208.655 87.328 203.446 94.7102C202.67 95.8103 201.935 96.4833 200.425 96.485C187.392 96.5003 174.358 96.5812 161.325 96.7325C159.03 96.7592 157.504 96.5459 156.536 93.8843C153.412 85.2846 149.91 76.8223 146.558 68.1529Z" fill="#678EC8"/>
<path d="M363.748 81.2C363.748 85.7296 363.698 90.06 363.773 94.3882C363.801 95.9758 363.197 96.4748 361.661 96.4601C355.611 96.402 349.559 96.4005 343.508 96.4633C341.926 96.4797 341.442 95.8851 341.445 94.3453C341.482 74.8956 341.485 55.4459 341.447 35.9962C341.444 34.406 342.016 33.9249 343.552 33.9406C349.535 34.0018 355.521 34.0175 361.505 33.9262C363.276 33.8992 363.781 34.5167 363.775 36.2391C363.723 51.1593 363.747 66.0797 363.748 81.2Z" fill="#8FA8D4"/>
<path d="M395.064 76.6593C396.299 78.8762 397.598 80.9012 398.586 83.0682C399.217 84.4522 399.602 86.0298 399.719 87.5498C399.902 89.9326 399.732 92.3408 399.782 94.7368C399.805 95.8633 399.531 96.4508 398.241 96.4407C392.392 96.3949 386.542 96.405 380.692 96.4347C379.41 96.4412 378.925 95.9077 378.927 94.6391C378.947 79.8574 378.938 65.0757 378.947 50.2939C378.947 49.9935 379.064 49.6931 379.126 49.3927C379.331 49.3121 379.535 49.2315 379.739 49.1509C384.825 58.2765 389.911 67.402 395.064 76.6593Z" fill="#9FB7D9"/>
<path d="M356.198 26.4549C350.081 27.4997 344.826 26.5539 340.946 21.3779C338.752 18.4505 338.843 11.8754 341.069 8.92617C346.325 1.9592 357.12 2.24278 362.782 7.10649C366.817 10.5724 366.43 18.2085 364.254 21.2625C362.303 23.9992 359.817 25.9656 356.198 26.4549Z" fill="#8FA8D4"/>
<path d="M241.876 71.0648C242.437 71.0388 243.146 70.958 243.369 71.2496C245.808 74.449 248.185 77.6963 250.552 80.9506C253.624 85.175 256.68 89.4119 259.723 93.6576C260.247 94.3892 260.674 95.191 261.312 96.2319C260.407 96.3305 259.847 96.444 259.287 96.4448C251.849 96.455 244.411 96.4378 236.973 96.459C235.702 96.4627 234.839 96.2828 234.157 94.8876C233.21 92.9522 231.776 91.2516 230.513 89.4777C229.572 88.157 229.332 87.0797 230.541 85.5982C234.396 80.8766 238.06 75.9998 241.876 71.0648Z" fill="#668DC8"/>
<path d="M194.964 40.3807C193.442 38.5878 192 36.8698 190.698 35.0511C186.461 29.1337 182.27 23.1838 178.086 17.2287C177.848 16.8892 177.834 16.3914 177.641 15.7016C178.538 15.6476 179.234 15.5701 179.93 15.5692C186.382 15.5603 192.844 15.7849 199.281 15.4699C202.385 15.318 204.013 16.524 205.259 19.0487C205.839 20.224 206.558 21.395 207.459 22.3306C208.575 23.4879 208.575 24.4148 207.601 25.6101C203.704 30.3913 199.854 35.2105 195.966 39.9982C195.785 40.2208 195.399 40.2762 194.964 40.3807Z" fill="#668DC8"/>
<path d="M142.813 15.5576C142.236 15.779 141.538 15.9876 140.839 15.9919C136.051 16.021 131.264 16.0065 126.476 16.0075C123.932 16.008 123.16 16.7653 122.224 19.1802C120.951 22.4665 119.364 25.6294 118.015 28.8884C116.791 31.847 115.756 34.8842 114.537 37.8451C113.963 39.2416 113.092 40.5131 112.46 41.8891C110.453 46.2551 108.426 50.6142 106.542 55.0336C105.234 58.1007 104.257 61.3099 102.932 64.369C101.657 67.3144 100.062 70.1189 98.7243 73.0393C97.1701 76.4334 95.7937 79.9091 94.248 83.3074C92.6952 86.7214 91.0011 90.0707 89.4371 93.4798C89.1324 94.144 89.1411 94.9525 88.9506 95.9926C90.8564 95.9926 92.4331 95.9928 94.0099 95.9926C98.864 95.992 103.719 95.95 108.572 96.0188C109.838 96.0367 110.549 95.5869 111 94.4512C112.695 90.1837 114.415 85.9257 116.141 81.6705C117.947 77.2171 119.809 72.7861 121.578 68.3178C123.589 63.2375 125.477 58.1083 127.505 53.0354C128.996 49.3085 130.64 45.6433 132.188 41.9392C132.616 40.9166 132.88 39.8215 133.357 38.8256C133.533 38.459 134.13 38.0451 134.49 38.0831C134.894 38.1259 135.425 38.5787 135.597 38.983C137.626 43.7576 139.615 48.5494 141.58 53.3513C143.118 57.1114 144.642 60.8784 146.091 64.6735C146.412 65.5155 146.392 66.4884 146.5 67.5806C145.783 66.3496 145.004 64.9756 144.423 63.5224C141.27 55.6482 138.169 47.7536 135.037 39.8711C134.928 39.5973 134.684 39.3774 134.289 38.8415C133.555 40.5936 132.915 42.0803 132.308 43.5803C128.816 52.205 125.315 60.8262 121.85 69.4617C118.786 77.098 115.764 84.7513 112.725 92.3979C112.651 92.5828 112.609 92.7802 112.538 92.9659C111.1 96.6982 111.1 96.6991 107.107 96.6998C101.588 96.7008 96.0683 96.7148 90.5491 96.6845C89.6753 96.6797 88.8026 96.4711 87.5 96.3005C89.4068 91.9675 91.143 88.0371 92.8673 84.1015C97.1271 74.3795 101.348 64.6402 105.647 54.9359C109.759 45.6563 113.962 36.4178 118.099 27.1493C119.614 23.7542 120.98 20.2901 122.585 16.9394C122.928 16.2232 124.003 15.4184 124.752 15.4073C130.73 15.3193 136.711 15.4126 142.813 15.5576Z" fill="#678EC8"/>
<path d="M153.415 33.0228C152.599 31.7511 151.665 30.3773 150.975 28.8901C149.177 25.0138 147.526 21.0683 145.707 17.2025C145.429 16.6136 144.564 16.3026 143.875 15.7639C144.924 15.0277 145.829 15.296 146.345 16.4824C148.718 21.9368 151.058 27.4054 153.415 33.0228Z" fill="#678EC8"/>
<path d="M41.7235 59.8696C46.2195 59.8751 46.2205 59.8751 46.2194 64.2156C46.2168 73.8773 46.1747 83.5392 46.2464 93.2004C46.2589 94.8872 45.7292 95.4022 44.0925 95.3373C41.3031 95.2266 38.5055 95.2687 35.7127 95.3192C34.4962 95.3413 34.1043 94.8665 34.1079 93.6643C34.1408 82.9366 34.1402 72.2087 34.107 61.481C34.1033 60.2584 34.5394 59.83 35.7385 59.8687C37.6654 59.931 39.596 59.8754 41.7235 59.8696Z" fill="#F6F7FA"/>
<path d="M18.1848 95.6569C14.9718 95.6409 11.7587 95.625 8.25111 95.5266C7.6274 94.8854 7.0127 94.3277 7.01065 93.7677C6.95897 79.6377 6.98076 65.5074 6.95772 51.3772C6.95561 50.0834 7.45634 49.5949 8.73294 49.6188C11.5266 49.6709 14.3233 49.6901 17.116 49.6167C18.5901 49.5779 19.0946 50.1376 19.0908 51.6055C19.0537 65.6023 19.0798 79.5993 19.029 93.596C19.0265 94.284 18.4787 94.97 18.1848 95.6569Z" fill="#F6F8FA"/>
<path d="M74.4506 80C74.4497 84.6613 74.4094 89.1231 74.4675 93.5837C74.4904 95.3443 73.8992 96.1031 72.0271 96.0296C68.8412 95.9046 65.6465 95.9657 62.4564 96.0087C61.1738 96.026 60.4124 95.683 60.4884 94.2181C60.5567 92.8998 60.5098 91.5755 60.5098 90.2538C60.5104 77.4025 60.5081 64.5513 60.5119 51.7C60.5127 49.0929 60.7713 48.8334 63.3609 48.8254C66.1528 48.8167 68.9447 48.8196 71.7366 48.8306C74.1675 48.8401 74.4476 49.1265 74.4489 51.6338C74.4537 61.0225 74.4507 70.4112 74.4506 80ZM73.644 63.8C73.6436 59.8031 73.6159 55.806 73.6585 51.8096C73.6724 50.5095 73.3148 49.8216 71.8601 49.856C68.9357 49.925 66.0079 49.9145 63.0827 49.866C61.8113 49.8448 61.2922 50.3229 61.294 51.6186C61.3143 65.6075 61.311 79.5964 61.2885 93.5853C61.2865 94.8822 61.8341 95.3593 63.093 95.3373C65.8187 95.2896 68.5496 95.2292 71.2709 95.3471C73.0742 95.4252 73.6995 94.8581 73.6828 92.9769C73.5977 83.3852 73.6438 73.7924 73.644 63.8Z" fill="#7394CB"/>
<path d="M18.2771 95.7565C18.4787 94.97 19.0265 94.284 19.029 93.596C19.0798 79.5993 19.0537 65.6023 19.0908 51.6055C19.0946 50.1376 18.5901 49.5779 17.116 49.6167C14.3233 49.6901 11.5266 49.6709 8.73294 49.6188C7.45634 49.5949 6.95562 50.0834 6.95772 51.3772C6.98076 65.5074 6.95897 79.6377 7.01065 93.7677C7.0127 94.3276 7.6274 94.8854 8.06494 95.5549C6.9408 96.3261 6.29753 95.9086 6.20912 94.5593C6.17003 93.9626 6.20143 93.3613 6.20142 92.7622C6.2012 79.1139 6.20014 65.4657 6.20167 51.8175C6.20198 49.0415 6.41812 48.8206 9.11753 48.8172C11.8425 48.8139 14.5729 48.9218 17.2908 48.7828C19.21 48.6847 19.8238 49.3394 19.8135 51.2722C19.7447 64.1877 19.7719 77.1038 19.7889 90.0196C19.7904 91.1402 20.0553 92.2667 19.9945 93.3793C19.9362 94.4447 20.3014 95.958 18.2771 95.7565Z" fill="#6D8CC6"/>
<path d="M66.2066 21.7217C66.9385 20.106 67.6797 20.1845 68.4899 21.4782C68.6664 21.76 68.9109 22.0087 69.0405 22.3089C70.2854 25.1942 72.6791 26.3515 75.5997 26.7733C76.152 26.853 76.6772 27.1204 77.4419 27.3776C76.1152 29.2542 74.4839 30.7628 73.905 32.6036C73.3194 34.4652 73.7759 36.6558 73.7759 39.4526C69.5215 36.986 65.5485 36.6678 61.3619 39.1277C61.9931 34.4616 61.0433 30.6453 56.889 27.4383C61.0528 26.4129 64.7172 25.761 66.2066 21.7217Z" fill="#F2F5F9"/>
<path d="M1.94051 30.2656C1.76364 30.0536 1.68111 29.9492 1.6033 29.8413C-0.711344 26.6332 -0.799104 26.1091 3.20262 25.4361C7.49015 24.7149 9.67485 22.1689 11.6598 18.8423C13.1088 16.414 13.9922 16.3684 15.2025 18.8116C17.2277 22.8997 20.3415 25.0926 24.8254 25.7447C27.1383 26.0811 27.4027 27.2482 25.9422 29.0142C25.2653 29.8327 24.6775 30.7373 23.9299 31.4826C22.4259 32.982 21.7087 34.6699 21.9872 36.8421C22.1723 38.2854 22.0749 39.7672 22.0749 41.2317C22.075 42.7286 21.2806 43.087 19.9775 42.6191C19.6038 42.485 19.2302 42.3266 18.8921 42.1208C14.9464 39.72 11.0992 40.6006 7.22673 42.3709C5.23344 43.2822 4.69487 42.8897 4.67577 40.7647C4.6662 39.6998 4.51882 38.5945 4.74483 37.5768C5.41966 34.5379 4.01806 32.3647 1.94051 30.2656ZM7.27669 35.5226C7.27669 36.8291 7.27669 38.1356 7.27669 39.7324C8.24846 39.4242 8.98317 39.3182 9.58613 38.978C12.2593 37.4695 14.8257 37.6938 17.5228 39.0252C19.5085 40.0054 19.9179 39.7237 19.6817 37.5051C19.3425 34.3197 20.0282 31.6725 22.4769 29.4636C23.7816 28.2867 23.5264 27.5314 21.7759 27.3135C18.5879 26.9164 16.2614 25.5495 14.7948 22.5531C13.8771 20.6781 13.034 20.7093 12.0938 22.5372C10.6788 25.2881 8.61952 26.8667 5.51394 27.2735C3.30312 27.563 3.30979 27.8583 4.59 29.6638C5.77645 31.337 7.82301 32.6196 7.27669 35.5226Z" fill="#6588C5"/>
<path d="M7.28047 35.3376C7.82302 32.6196 5.77645 31.3371 4.59 29.6638C3.3098 27.8583 3.30313 27.563 5.51395 27.2735C8.61953 26.8668 10.6788 25.2881 12.0938 22.5372C13.034 20.7093 13.8771 20.6781 14.7948 22.5531C16.2614 25.5495 18.5879 26.9165 21.7759 27.3135C23.5264 27.5315 23.7816 28.2867 22.4769 29.4636C20.0282 31.6725 19.3425 34.3197 19.6817 37.5051C19.9179 39.7237 19.5085 40.0054 17.5228 39.0252C14.8257 37.6938 12.2593 37.4695 9.58613 38.978C8.98318 39.3182 8.24846 39.4242 7.27669 39.7325C7.27669 38.1356 7.27669 36.8291 7.28047 35.3376Z" fill="#F2F5F9"/>
<path d="M28.7612 39.8026C28.5844 39.5905 28.5018 39.4861 28.424 39.3783C26.1094 36.1701 26.0216 35.6461 30.0233 34.973C34.3109 34.2518 36.4956 31.7058 38.4806 28.3793C39.9296 25.9509 40.8129 25.9053 42.0233 28.3485C44.0485 32.4367 47.1623 34.6295 51.6461 35.2816C53.9591 35.618 54.2235 36.7851 52.7629 38.5512C52.086 39.3697 51.4982 40.2742 50.7506 41.0195C49.2466 42.519 48.5295 44.2068 48.8079 46.379C48.993 47.8224 48.8957 49.3041 48.8957 50.7686C48.8957 52.2656 48.1013 52.6239 46.7982 52.156C46.4245 52.0219 46.051 51.8635 45.7128 51.6577C41.7671 49.2569 37.92 50.1375 34.0475 51.9079C32.0542 52.8191 31.5156 52.4266 31.4965 50.3016C31.4869 49.2367 31.3395 48.1314 31.5656 47.1137C32.2404 44.0748 30.8388 41.9016 28.7612 39.8026ZM34.0974 45.0595C34.0974 46.366 34.0974 47.6725 34.0974 49.2694C35.0692 48.9611 35.8039 48.8551 36.4069 48.5149C39.08 47.0064 41.6464 47.2307 44.3435 48.5621C46.3292 49.5424 46.7387 49.2606 46.5024 47.042C46.1632 43.8566 46.8489 41.2094 49.2976 39.0005C50.6023 37.8236 50.3471 37.0684 48.5966 36.8504C45.4087 36.4534 43.0821 35.0864 41.6155 32.09C40.6978 30.215 39.8547 30.2463 38.9145 32.0742C37.4995 34.825 35.4402 36.4037 32.3347 36.8104C30.1238 37.1 30.1305 37.3952 31.4107 39.2007C32.5972 40.874 34.6437 42.1566 34.0974 45.0595Z" fill="#6588C5"/>
<path d="M34.1012 44.8745C34.6437 42.1566 32.5972 40.874 31.4107 39.2007C30.1305 37.3952 30.1239 37.1 32.3347 36.8104C35.4403 36.4037 37.4995 34.825 38.9145 32.0742C39.8547 30.2463 40.6978 30.215 41.6155 32.09C43.0821 35.0864 45.4087 36.4534 48.5966 36.8504C50.3471 37.0684 50.6023 37.8236 49.2976 39.0005C46.8489 41.2094 46.1632 43.8567 46.5024 47.042C46.7387 49.2606 46.3292 49.5424 44.3436 48.5621C41.6464 47.2307 39.08 47.0064 36.4069 48.5149C35.8039 48.8552 35.0692 48.9611 34.0974 49.2694C34.0974 47.6725 34.0974 46.366 34.1012 44.8745Z" fill="#F2F5F9"/>
<path d="M73.6439 64C73.6438 73.7924 73.5977 83.3852 73.6828 92.9769C73.6995 94.8581 73.0742 95.4252 71.2709 95.3471C68.5496 95.2292 65.8187 95.2896 63.093 95.3373C61.8341 95.3593 61.2865 94.8822 61.2885 93.5853C61.311 79.5964 61.3143 65.6075 61.294 51.6186C61.2922 50.3229 61.8113 49.8448 63.0827 49.866C66.0079 49.9145 68.9356 49.925 71.8601 49.856C73.3148 49.8216 73.6724 50.5095 73.6585 51.8096C73.6159 55.806 73.6436 59.8031 73.6439 64Z" fill="#F7F8FB"/>
<path d="M1.58818 95.3976C3.87294 96.6641 4.9975 96.1296 4.99937 93.7871C5.0109 79.3234 5.03635 64.8597 4.97172 50.3963C4.9649 48.8691 5.45208 48.0649 6.8841 48.0584C11.3711 48.0381 15.8584 48.113 20.5932 48.153C20.5932 49.4162 20.5932 50.1962 20.5932 50.9762C20.5935 63.9069 20.5909 76.8375 20.5999 89.7682C20.6006 90.7608 20.7567 91.7565 20.7142 92.7454C20.575 95.9914 20.5526 95.9912 23.8291 95.9924C25.8919 95.9931 27.9579 95.9186 30.0164 96.0117C31.9526 96.0993 32.5718 95.2314 32.5634 93.3778C32.5144 82.5136 32.5826 71.6487 32.4919 60.785C32.4759 58.8727 32.9796 58.2543 34.9213 58.3307C38.7082 58.4796 42.5052 58.3838 46.2979 58.3673C47.2352 58.3632 47.9464 58.3924 47.9352 59.6937C47.8441 70.3508 47.8047 81.0082 47.7504 91.6656C47.747 92.3139 47.7499 92.9623 47.285 93.6053C47.285 92.9137 47.285 92.222 47.285 91.5304C47.2852 81.6658 47.2889 71.8012 47.2833 61.9365C47.2819 59.3537 47.1312 59.2073 44.5904 59.201C41.463 59.1934 38.3351 59.2329 35.2085 59.1824C33.8338 59.1602 33.3288 59.7173 33.3324 61.0849C33.3614 72.0825 33.3652 83.0803 33.3246 94.0779C33.319 95.6024 33.9624 96.0412 35.3726 96.0101C38.2324 95.9471 41.1053 96.1501 43.9533 95.9558C48.2388 95.6633 52.5055 96.1637 56.7839 96.0117C59.6869 95.9086 59.6874 95.9893 59.6872 93.1637C59.686 79.0333 59.6857 64.9029 59.6863 50.7725C59.6864 48.115 59.7828 48.0186 62.5422 48.0142C65.8026 48.009 69.0674 48.117 72.3219 47.9781C74.2972 47.8938 74.964 48.4704 74.9515 50.5447C74.8659 64.7412 74.9088 78.9385 74.9073 93.1355C74.907 95.9812 74.9012 95.968 77.7839 96.0014C78.5169 96.0099 79.2487 96.1319 79.981 96.2018C79.9976 96.4445 80.0141 96.6871 80.0307 96.9298C79.292 97.0323 78.5534 97.2233 77.8147 97.2242C61.8451 97.2417 45.8755 97.2306 29.9059 97.2411C20.525 97.2472 11.1441 97.2811 1.58127 97.2513C1.39932 96.7733 1.39932 96.3467 1.39932 95.76C1.42597 95.5324 1.45263 95.4647 1.58818 95.3976ZM18.3693 95.8562C20.3014 95.958 19.9362 94.4447 19.9945 93.3793C20.0553 92.2667 19.7904 91.1402 19.7889 90.0196C19.7719 77.1038 19.7447 64.1877 19.8135 51.2722C19.8238 49.3394 19.21 48.6847 17.2908 48.7828C14.5729 48.9218 11.8425 48.8139 9.11752 48.8172C6.41811 48.8206 6.20197 49.0415 6.20166 51.8175C6.20013 65.4657 6.20119 79.1139 6.20142 92.7622C6.20143 93.3613 6.17002 93.9626 6.20911 94.5593C6.29752 95.9086 6.9408 96.3261 8.54557 95.6091C11.7587 95.625 14.9718 95.6409 18.3693 95.8562ZM74.4507 79.8C74.4507 70.4113 74.4537 61.0225 74.4489 51.6338C74.4476 49.1265 74.1675 48.8401 71.7366 48.8306C68.9447 48.8196 66.1528 48.8167 63.3609 48.8254C60.7713 48.8334 60.5127 49.0929 60.5119 51.7C60.5081 64.5513 60.5104 77.4025 60.5098 90.2538C60.5098 91.5755 60.5567 92.8999 60.4884 94.2181C60.4124 95.683 61.1738 96.026 62.4564 96.0087C65.6465 95.9657 68.8412 95.9046 72.0271 96.0297C73.8992 96.1031 74.4904 95.3443 74.4675 93.5837C74.4094 89.1231 74.4497 84.6613 74.4507 79.8Z" fill="#4170BC"/>
<path d="M1.6971 95.3982C2.48107 95.3149 3.26505 95.2316 4.34379 95.117C4.34379 94.0315 4.34357 92.989 4.34383 91.9466C4.34719 78.0854 4.34747 64.2242 4.35673 50.363C4.35857 47.6158 4.69746 47.2969 7.47577 47.2948C11.3344 47.2919 15.193 47.2812 19.0516 47.2941C21.3752 47.3018 21.6801 47.6179 21.6808 49.9824C21.685 64.3101 21.7154 78.638 21.6422 92.9653C21.6329 94.7863 22.0762 95.5075 23.9627 95.3415C25.6793 95.1904 27.4275 95.2032 29.1469 95.3363C30.942 95.4752 31.5532 94.9178 31.5368 93.0178C31.4445 82.2895 31.4871 71.56 31.4875 60.8309C31.4876 57.5592 31.7433 57.3054 34.9937 57.3043C38.6527 57.303 42.3118 57.2912 45.9708 57.3123C48.6119 57.3276 48.8302 57.5572 48.8304 60.1736C48.8314 71.1026 48.8691 82.032 48.781 92.9604C48.7662 94.7991 49.2598 95.4781 51.1165 95.3396C52.969 95.2015 54.8456 95.2198 56.701 95.3376C58.4763 95.4504 58.9751 94.7441 58.967 93.0162C58.9072 80.2882 58.9337 67.5597 58.9341 54.8314C58.9341 52.9654 58.9741 51.0987 58.9313 49.2339C58.9011 47.9181 59.3742 47.265 60.7802 47.2773C65.1706 47.3155 69.5617 47.3009 73.9525 47.2814C75.8424 47.2731 76.0227 48.4536 76.0195 49.9537C75.9921 62.882 75.9994 75.8102 75.9965 88.7385C75.9964 89.6048 75.995 90.4712 75.9981 91.3375C76.0105 94.8124 76.0217 94.7552 79.3417 95.3744C79.9676 95.4911 80.4713 96.2649 81.0314 96.7355C80.4414 97.1481 79.872 97.8767 79.2577 97.9169C77.0051 98.0641 74.7375 97.9865 72.4756 97.9865C49.7231 97.9863 26.9706 97.9814 4.21805 97.9965C3.37569 97.9971 2.53345 98.1894 1.54524 98.1462C1.39933 97.8222 1.39933 97.6444 1.58128 97.3846C11.1441 97.2811 20.525 97.2472 29.9059 97.2411C45.8755 97.2306 61.8451 97.2417 77.8147 97.2242C78.5535 97.2234 79.292 97.0323 80.0307 96.9298C80.0141 96.6871 79.9976 96.4445 79.981 96.2018C79.2487 96.1319 78.5169 96.0099 77.7839 96.0014C74.9012 95.968 74.907 95.9812 74.9073 93.1355C74.9088 78.9385 74.8659 64.7412 74.9515 50.5447C74.964 48.4704 74.2972 47.8938 72.3219 47.9781C69.0674 48.117 65.8026 48.009 62.5422 48.0142C59.7828 48.0186 59.6864 48.1151 59.6863 50.7725C59.6857 64.9029 59.686 79.0333 59.6872 93.1637C59.6874 95.9893 59.6869 95.9086 56.7839 96.0117C52.5055 96.1637 48.2388 95.6634 43.9533 95.9558C41.1053 96.1501 38.2324 95.9471 35.3726 96.0101C33.9624 96.0412 33.319 95.6024 33.3246 94.0779C33.3652 83.0803 33.3614 72.0825 33.3324 61.0849C33.3288 59.7173 33.8338 59.1602 35.2085 59.1824C38.3351 59.2329 41.463 59.1934 44.5904 59.2011C47.1312 59.2073 47.2819 59.3537 47.2833 61.9365C47.2889 71.8012 47.2852 81.6658 47.285 91.5304C47.285 92.222 47.285 92.9137 47.285 93.6053C47.7499 92.9623 47.7471 92.3139 47.7504 91.6656C47.8047 81.0082 47.8441 70.3508 47.9352 59.6937C47.9464 58.3924 47.2352 58.3633 46.2979 58.3673C42.5052 58.3839 38.7082 58.4796 34.9213 58.3307C32.9796 58.2544 32.4759 58.8727 32.4919 60.7851C32.5826 71.6487 32.5144 82.5136 32.5634 93.3778C32.5718 95.2314 31.9526 96.0993 30.0164 96.0117C27.9579 95.9186 25.8919 95.9932 23.8291 95.9924C20.5526 95.9912 20.575 95.9915 20.7142 92.7454C20.7567 91.7565 20.6006 90.7608 20.5999 89.7682C20.5909 76.8375 20.5935 63.9069 20.5932 50.9762C20.5932 50.1962 20.5932 49.4162 20.5932 48.153C15.8585 48.113 11.3711 48.0381 6.8841 48.0584C5.45208 48.0649 4.96491 48.8691 4.97173 50.3963C5.03636 64.8597 5.01091 79.3234 4.99938 93.7871C4.99751 96.1296 3.87295 96.6641 1.6971 95.3982ZM41.5251 59.8696C39.596 59.8754 37.6654 59.931 35.7386 59.8687C34.5394 59.83 34.1033 60.2585 34.1071 61.4811C34.1402 72.2087 34.1408 82.9366 34.108 93.6643C34.1043 94.8665 34.4962 95.3413 35.7127 95.3193C38.5055 95.2687 41.3031 95.2266 44.0926 95.3373C45.7292 95.4022 46.259 94.8872 46.2464 93.2004C46.1747 83.5392 46.2169 73.8773 46.2194 64.2156C46.2205 59.8751 46.2195 59.8751 41.5251 59.8696Z" fill="#7997CC"/>
<path d="M64.1921 40.7913C63.1051 41.1834 62.1731 41.5397 61.226 41.8495C59.1348 42.5338 58.2325 42.0149 58.7342 39.8515C59.8405 35.0806 58.1141 31.5262 54.8508 28.2864C53.2554 26.7025 53.6477 25.7611 55.8562 25.1058C56.1107 25.0303 56.3689 24.9405 56.6304 24.9199C60.9932 24.5754 63.6833 22.0732 65.5482 18.282C66.6772 15.987 67.926 16.0428 69.2584 18.1867C70.1348 19.5968 70.9034 21.1087 71.9827 22.3452C72.6689 23.1314 73.7802 23.6561 74.8003 24.0135C76.3608 24.5602 78.0284 24.7926 79.6111 25.2858C81.2033 25.782 81.4301 26.6417 80.4042 27.9608C79.6292 28.9573 78.9005 30.0273 77.9653 30.8533C76.0361 32.5571 75.7495 34.646 76.0913 37.0123C76.2523 38.1264 76.303 39.2674 76.2834 40.3941C76.2551 42.0264 75.5182 42.5119 73.9498 41.99C72.8814 41.6346 71.7873 41.3067 70.7889 40.7999C68.6256 39.7018 66.5031 39.5083 64.1921 40.7913ZM66.1358 21.8481C64.7172 25.761 61.0528 26.4129 56.889 27.4383C61.0433 30.6453 61.9931 34.4616 61.3619 39.1276C65.5485 36.6678 69.5215 36.986 73.7759 39.4526C73.7759 36.6557 73.3194 34.4652 73.905 32.6035C74.4839 30.7628 76.1152 29.2541 77.4419 27.3776C76.6772 27.1204 76.152 26.853 75.5997 26.7732C72.6791 26.3515 70.2854 25.1942 69.0405 22.3089C68.9109 22.0087 68.6664 21.76 68.4899 21.4782C67.6797 20.1845 66.9385 20.106 66.1358 21.8481Z" fill="#6588C5"/>
</g>
<defs>
<clipPath id="clip0_1_3">
<rect width="472" height="100" fill="white"/>
</clipPath>
</defs>
</svg>
