<svg width="85" height="83" viewBox="0 0 85 83" fill="none" xmlns="http://www.w3.org/2000/svg">
<path d="M18.1848 79.6569C14.9718 79.6409 11.7587 79.625 8.25111 79.5266C7.6274 78.8854 7.0127 78.3277 7.01065 77.7677C6.95897 63.6377 6.98076 49.5074 6.95772 35.3772C6.95561 34.0834 7.45634 33.5949 8.73294 33.6188C11.5266 33.6709 14.3233 33.6901 17.116 33.6167C18.5901 33.5779 19.0946 34.1376 19.0908 35.6055C19.0537 49.6023 19.0798 63.5993 19.029 77.596C19.0265 78.284 18.4787 78.97 18.1848 79.6569Z" fill="#F6F8FA"/>
<path d="M41.7235 43.8696C46.2195 43.8751 46.2205 43.8751 46.2194 48.2156C46.2168 57.8773 46.1747 67.5392 46.2464 77.2004C46.2589 78.8872 45.7292 79.4022 44.0925 79.3373C41.3031 79.2266 38.5055 79.2687 35.7127 79.3192C34.4962 79.3413 34.1043 78.8665 34.1079 77.6643C34.1408 66.9366 34.1402 56.2087 34.107 45.481C34.1033 44.2585 34.5394 43.83 35.7385 43.8687C37.6654 43.931 39.596 43.8754 41.7235 43.8696Z" fill="#F6F7FA"/>
<path d="M74.4506 64C74.4497 68.6613 74.4094 73.1231 74.4675 77.5837C74.4904 79.3443 73.8992 80.1031 72.0271 80.0297C68.8412 79.9046 65.6465 79.9657 62.4564 80.0087C61.1738 80.026 60.4124 79.683 60.4884 78.2181C60.5567 76.8999 60.5098 75.5755 60.5098 74.2538C60.5104 61.4025 60.5081 48.5513 60.5119 35.7C60.5127 33.0929 60.7713 32.8334 63.3609 32.8254C66.1528 32.8168 68.9447 32.8196 71.7366 32.8306C74.1675 32.8401 74.4476 33.1265 74.4489 35.6338C74.4537 45.0225 74.4507 54.4113 74.4506 64ZM73.644 47.8C73.6436 43.8032 73.6159 39.806 73.6585 35.8096C73.6724 34.5095 73.3148 33.8216 71.8601 33.856C68.9357 33.925 66.0079 33.9145 63.0827 33.866C61.8113 33.8449 61.2922 34.3229 61.294 35.6186C61.3143 49.6075 61.311 63.5964 61.2885 77.5853C61.2865 78.8822 61.8341 79.3593 63.093 79.3373C65.8187 79.2896 68.5496 79.2292 71.2709 79.3471C73.0742 79.4252 73.6995 78.8582 73.6828 76.9769C73.5977 67.3852 73.6438 57.7924 73.644 47.8Z" fill="#7394CB"/>
<path d="M18.2771 79.7565C18.4787 78.97 19.0265 78.284 19.029 77.596C19.0798 63.5993 19.0537 49.6023 19.0908 35.6055C19.0946 34.1376 18.5901 33.5779 17.116 33.6167C14.3233 33.6901 11.5266 33.6709 8.73294 33.6188C7.45634 33.5949 6.95562 34.0834 6.95772 35.3772C6.98076 49.5074 6.95897 63.6377 7.01065 77.7677C7.0127 78.3277 7.6274 78.8854 8.06494 79.5549C6.9408 80.3261 6.29753 79.9087 6.20912 78.5593C6.17003 77.9626 6.20143 77.3613 6.20142 76.7622C6.2012 63.1139 6.20014 49.4657 6.20167 35.8175C6.20198 33.0415 6.41812 32.8206 9.11753 32.8172C11.8425 32.8139 14.5729 32.9218 17.2908 32.7828C19.21 32.6847 19.8238 33.3394 19.8135 35.2722C19.7447 48.1877 19.7719 61.1038 19.7889 74.0196C19.7904 75.1402 20.0553 76.2667 19.9945 77.3793C19.9362 78.4447 20.3014 79.958 18.2771 79.7565Z" fill="#6D8CC6"/>
<path d="M1.6971 79.3982C2.48107 79.3149 3.26505 79.2316 4.34379 79.117C4.34379 78.0315 4.34357 76.989 4.34383 75.9466C4.34719 62.0854 4.34747 48.2242 4.35673 34.3629C4.35857 31.6158 4.69746 31.2969 7.47577 31.2948C11.3344 31.2919 15.193 31.2812 19.0516 31.294C21.3752 31.3018 21.6801 31.6179 21.6808 33.9824C21.685 48.3101 21.7154 62.638 21.6422 76.9653C21.6329 78.7862 22.0762 79.5075 23.9627 79.3415C25.6793 79.1904 27.4275 79.2032 29.1469 79.3363C30.942 79.4752 31.5532 78.9178 31.5368 77.0178C31.4445 66.2895 31.4871 55.56 31.4875 44.8308C31.4876 41.5592 31.7433 41.3054 34.9937 41.3043C38.6527 41.303 42.3118 41.2912 45.9708 41.3123C48.6119 41.3276 48.8302 41.5572 48.8304 44.1736C48.8314 55.1026 48.8691 66.032 48.781 76.9604C48.7662 78.7991 49.2598 79.4781 51.1165 79.3396C52.969 79.2015 54.8456 79.2198 56.701 79.3376C58.4763 79.4504 58.9751 78.7441 58.967 77.0162C58.9072 64.2882 58.9337 51.5597 58.9341 38.8313C58.9341 36.9654 58.9741 35.0987 58.9313 33.2338C58.9011 31.9181 59.3742 31.265 60.7802 31.2773C65.1706 31.3155 69.5617 31.3009 73.9525 31.2814C75.8424 31.2731 76.0227 32.4536 76.0195 33.9537C75.9921 46.8819 75.9994 59.8102 75.9965 72.7385C75.9964 73.6048 75.995 74.4711 75.9981 75.3375C76.0105 78.8124 76.0217 78.7552 79.3417 79.3744C79.9676 79.4911 80.4713 80.2649 81.0314 80.7355C80.4414 81.1481 79.872 81.8767 79.2577 81.9169C77.0051 82.0641 74.7375 81.9865 72.4756 81.9865C49.7231 81.9863 26.9706 81.9814 4.21805 81.9965C3.37569 81.997 2.53345 82.1894 1.54524 82.1462C1.39933 81.8222 1.39933 81.6444 1.58128 81.3846C11.1441 81.2811 20.525 81.2472 29.9059 81.2411C45.8755 81.2306 61.8451 81.2417 77.8147 81.2242C78.5535 81.2233 79.292 81.0323 80.0307 80.9298C80.0141 80.6871 79.9976 80.4445 79.981 80.2018C79.2487 80.1319 78.5169 80.0099 77.7839 80.0014C74.9012 79.968 74.907 79.9812 74.9073 77.1355C74.9088 62.9385 74.8659 48.7412 74.9515 34.5447C74.964 32.4704 74.2972 31.8938 72.3219 31.9781C69.0674 32.117 65.8026 32.009 62.5422 32.0142C59.7828 32.0186 59.6864 32.1151 59.6863 34.7725C59.6857 48.9029 59.686 63.0333 59.6872 77.1637C59.6874 79.9893 59.6869 79.9086 56.7839 80.0117C52.5055 80.1637 48.2388 79.6633 43.9533 79.9558C41.1053 80.1501 38.2324 79.9471 35.3726 80.0101C33.9624 80.0412 33.319 79.6024 33.3246 78.0779C33.3652 67.0803 33.3614 56.0825 33.3324 45.0849C33.3288 43.7173 33.8338 43.1602 35.2085 43.1824C38.3351 43.2329 41.463 43.1934 44.5904 43.201C47.1312 43.2073 47.2819 43.3537 47.2833 45.9365C47.2889 55.8012 47.2852 65.6658 47.285 75.5304C47.285 76.222 47.285 76.9137 47.285 77.6053C47.7499 76.9623 47.7471 76.3139 47.7504 75.6656C47.8047 65.0082 47.8441 54.3508 47.9352 43.6937C47.9464 42.3924 47.2352 42.3633 46.2979 42.3673C42.5052 42.3838 38.7082 42.4796 34.9213 42.3307C32.9796 42.2544 32.4759 42.8727 32.4919 44.7851C32.5826 55.6487 32.5144 66.5136 32.5634 77.3778C32.5718 79.2314 31.9526 80.0993 30.0164 80.0117C27.9579 79.9186 25.8919 79.9932 23.8291 79.9924C20.5526 79.9912 20.575 79.9914 20.7142 76.7454C20.7567 75.7565 20.6006 74.7608 20.5999 73.7682C20.5909 60.8375 20.5935 47.9069 20.5932 34.9762C20.5932 34.1962 20.5932 33.4162 20.5932 32.153C15.8585 32.113 11.3711 32.0381 6.8841 32.0584C5.45208 32.0649 4.96491 32.8691 4.97173 34.3963C5.03636 48.8597 5.01091 63.3234 4.99938 77.7871C4.99751 80.1296 3.87295 80.6641 1.6971 79.3982ZM41.5251 43.8696C39.596 43.8754 37.6654 43.931 35.7386 43.8687C34.5394 43.83 34.1033 44.2585 34.1071 45.481C34.1402 56.2087 34.1408 66.9366 34.108 77.6643C34.1043 78.8665 34.4962 79.3413 35.7127 79.3192C38.5055 79.2687 41.3031 79.2266 44.0926 79.3373C45.7292 79.4022 46.259 78.8872 46.2464 77.2004C46.1747 67.5392 46.2169 57.8773 46.2194 48.2156C46.2205 43.8751 46.2195 43.8751 41.5251 43.8696Z" fill="#7997CC"/>
<path d="M1.58818 79.3976C3.87294 80.6641 4.9975 80.1296 4.99937 77.7871C5.0109 63.3234 5.03635 48.8597 4.97172 34.3963C4.9649 32.8691 5.45208 32.0649 6.8841 32.0584C11.3711 32.0381 15.8584 32.113 20.5932 32.153C20.5932 33.4162 20.5932 34.1962 20.5932 34.9762C20.5935 47.9069 20.5909 60.8375 20.5999 73.7682C20.6006 74.7608 20.7567 75.7565 20.7142 76.7454C20.575 79.9914 20.5526 79.9912 23.8291 79.9924C25.8919 79.9931 27.9579 79.9186 30.0164 80.0117C31.9526 80.0993 32.5718 79.2314 32.5634 77.3778C32.5144 66.5136 32.5826 55.6487 32.4919 44.785C32.4759 42.8727 32.9796 42.2543 34.9213 42.3307C38.7082 42.4796 42.5052 42.3838 46.2979 42.3673C47.2352 42.3632 47.9464 42.3924 47.9352 43.6937C47.8441 54.3508 47.8047 65.0082 47.7504 75.6656C47.747 76.3139 47.7499 76.9623 47.285 77.6053C47.285 76.9137 47.285 76.222 47.285 75.5304C47.2852 65.6658 47.2889 55.8012 47.2833 45.9365C47.2819 43.3537 47.1312 43.2073 44.5904 43.201C41.463 43.1934 38.3351 43.2329 35.2085 43.1824C33.8338 43.1602 33.3288 43.7173 33.3324 45.0849C33.3614 56.0825 33.3652 67.0803 33.3246 78.0779C33.319 79.6024 33.9624 80.0412 35.3726 80.0101C38.2324 79.9471 41.1053 80.1501 43.9533 79.9558C48.2388 79.6633 52.5055 80.1637 56.7839 80.0117C59.6869 79.9086 59.6874 79.9893 59.6872 77.1637C59.686 63.0333 59.6857 48.9029 59.6863 34.7725C59.6864 32.115 59.7828 32.0186 62.5422 32.0142C65.8026 32.009 69.0674 32.117 72.3219 31.9781C74.2972 31.8938 74.964 32.4704 74.9515 34.5447C74.8659 48.7412 74.9088 62.9385 74.9073 77.1355C74.907 79.9812 74.9012 79.968 77.7839 80.0014C78.5169 80.0099 79.2487 80.1319 79.981 80.2018C79.9976 80.4445 80.0141 80.6871 80.0307 80.9298C79.292 81.0323 78.5534 81.2233 77.8147 81.2242C61.8451 81.2417 45.8755 81.2306 29.9059 81.2411C20.525 81.2472 11.1441 81.2811 1.58127 81.2513C1.39932 80.7733 1.39932 80.3467 1.39932 79.76C1.42597 79.5324 1.45263 79.4647 1.58818 79.3976ZM18.3693 79.8562C20.3014 79.958 19.9362 78.4447 19.9945 77.3793C20.0553 76.2667 19.7904 75.1402 19.7889 74.0196C19.7719 61.1038 19.7447 48.1877 19.8135 35.2722C19.8238 33.3394 19.21 32.6847 17.2908 32.7828C14.5729 32.9218 11.8425 32.8139 9.11752 32.8172C6.41811 32.8206 6.20197 33.0415 6.20166 35.8175C6.20013 49.4657 6.20119 63.1139 6.20142 76.7622C6.20143 77.3613 6.17002 77.9626 6.20911 78.5593C6.29752 79.9086 6.9408 80.3261 8.54557 79.6091C11.7587 79.625 14.9718 79.6409 18.3693 79.8562ZM74.4507 63.8C74.4507 54.4113 74.4537 45.0225 74.4489 35.6338C74.4476 33.1265 74.1675 32.8401 71.7366 32.8306C68.9447 32.8196 66.1528 32.8167 63.3609 32.8254C60.7713 32.8334 60.5127 33.0929 60.5119 35.7C60.5081 48.5513 60.5104 61.4025 60.5098 74.2538C60.5098 75.5755 60.5567 76.8999 60.4884 78.2181C60.4124 79.683 61.1738 80.026 62.4564 80.0087C65.6465 79.9657 68.8412 79.9046 72.0271 80.0297C73.8992 80.1031 74.4904 79.3443 74.4675 77.5837C74.4094 73.1231 74.4497 68.6613 74.4507 63.8Z" fill="#4170BC"/>
<path d="M68.5605 22.181C69.103 19.4631 67.0565 18.1805 65.87 16.5072C64.5898 14.7017 64.5832 14.4065 66.794 14.1169C69.8996 13.7102 71.9588 12.1315 73.3738 9.38066C74.314 7.55276 75.1571 7.52153 76.0748 9.39651C77.5414 12.3929 79.868 13.7599 83.0559 14.1569C84.8064 14.3749 85.0616 15.1301 83.7569 16.307C81.3083 18.5159 80.6225 21.1631 80.9617 24.3485C81.198 26.5671 80.7885 26.8489 78.8029 25.8686C76.1057 24.5372 73.5393 24.3129 70.8662 25.8214C70.2632 26.1616 69.5285 26.2676 68.5567 26.5759C68.5567 24.979 68.5567 23.6725 68.5605 22.181Z" fill="#F2F5F9"/>
<path d="M66.2066 5.72169C66.9385 4.10602 67.6797 4.18449 68.4899 5.4782C68.6664 5.76003 68.9109 6.00873 69.0405 6.30892C70.2854 9.19418 72.6791 10.3515 75.5997 10.7732C76.152 10.853 76.6772 11.1204 77.4419 11.3776C76.1152 13.2541 74.4839 14.7628 73.905 16.6035C73.3194 18.4652 73.7759 20.6557 73.7759 23.4526C69.5215 20.986 65.5485 20.6678 61.3619 23.1276C61.9931 18.4616 61.0433 14.6453 56.889 11.4383C61.0528 10.4129 64.7172 9.76096 66.2066 5.72169Z" fill="#F2F5F9"/>
<path d="M64.1921 24.7913C63.1051 25.1834 62.1731 25.5397 61.226 25.8496C59.1348 26.5338 58.2325 26.0149 58.7342 23.8515C59.8405 19.0806 58.1141 15.5262 54.8508 12.2864C53.2554 10.7026 53.6477 9.76115 55.8562 9.10581C56.1107 9.03031 56.3689 8.94054 56.6304 8.9199C60.9932 8.57546 63.6833 6.07321 65.5482 2.28203C66.6772 -0.0130196 67.926 0.0427753 69.2584 2.1867C70.1348 3.59683 70.9034 5.1087 71.9827 6.34523C72.6689 7.13145 73.7802 7.65614 74.8003 8.01349C76.3608 8.5602 78.0284 8.79264 79.6111 9.28585C81.2033 9.78205 81.4301 10.6417 80.4042 11.9608C79.6292 12.9573 78.9005 14.0273 77.9653 14.8533C76.0361 16.5571 75.7495 18.646 76.0913 21.0123C76.2523 22.1264 76.303 23.2674 76.2834 24.3942C76.2551 26.0264 75.5182 26.5119 73.9498 25.9901C72.8814 25.6346 71.7873 25.3067 70.7889 24.7999C68.6256 23.7019 66.5031 23.5083 64.1921 24.7913ZM66.1358 5.84809C64.7172 9.76097 61.0528 10.4129 56.889 11.4383C61.0433 14.6453 61.9931 18.4616 61.3619 23.1277C65.5485 20.6678 69.5215 20.986 73.7759 23.4526C73.7759 20.6558 73.3194 18.4652 73.905 16.6036C74.4839 14.7628 76.1152 13.2542 77.4419 11.3776C76.6772 11.1204 76.152 10.853 75.5997 10.7733C72.6791 10.3515 70.2854 9.19419 69.0405 6.30892C68.9109 6.00874 68.6664 5.76003 68.4899 5.47821C67.6797 4.1845 66.9385 4.10603 66.1358 5.84809Z" fill="#6588C5"/>
<path d="M12.3277 5.15197C13.0595 3.53631 13.8007 3.61477 14.6109 4.90848C14.7874 5.19031 15.0319 5.43901 15.1615 5.7392C16.4064 8.62447 18.8001 9.78179 21.7207 10.2035C22.273 10.2833 22.7982 10.5507 23.5629 10.8078C22.2362 12.6844 20.6049 14.1931 20.026 16.0338C19.4404 17.8955 19.8969 20.086 19.8969 22.8829C15.6425 20.4163 11.6695 20.0981 7.48288 22.5579C8.11408 17.8919 7.16425 14.0755 3.00998 10.8686C7.17379 9.8432 10.8382 9.19125 12.3277 5.15197Z" fill="#F2F5F9"/>
<path d="M10.3131 24.2216C9.22606 24.6137 8.29412 24.97 7.34705 25.2798C5.25577 25.9641 4.35352 25.4452 4.85518 23.2818C5.96148 18.5109 4.23512 14.9565 0.97177 11.7167C-0.623634 10.1328 -0.231312 9.19144 1.97723 8.53609C2.23166 8.46059 2.48994 8.37082 2.75136 8.35018C7.11418 8.00575 9.80429 5.50349 11.6692 1.71232C12.7982 -0.582737 14.047 -0.526942 15.3794 1.61698C16.2558 3.02711 17.0244 4.53898 18.1037 5.77552C18.7899 6.56173 19.9012 7.08642 20.9213 7.44378C22.4818 7.99048 24.1494 8.22293 25.7321 8.71614C27.3243 9.21233 27.5511 10.072 26.5252 11.3911C25.7502 12.3875 25.0215 13.4576 24.0863 14.2836C22.1571 15.9874 21.8705 18.0763 22.2123 20.4426C22.3733 21.5567 22.424 22.6977 22.4044 23.8244C22.3761 25.4567 21.6392 25.9422 20.0708 25.4203C19.0024 25.0649 17.9083 24.7369 16.9099 24.2302C14.7466 23.1321 12.6241 22.9386 10.3131 24.2216ZM12.2568 5.27837C10.8382 9.19125 7.17379 9.84321 3.00998 10.8686C7.16425 14.0755 8.11408 17.8919 7.48288 22.5579C11.6695 20.0981 15.6425 20.4163 19.8969 22.8829C19.8969 20.086 19.4404 17.8955 20.026 16.0338C20.6049 14.1931 22.2362 12.6844 23.5629 10.8079C22.7982 10.5507 22.273 10.2833 21.7207 10.2035C18.8001 9.7818 16.4064 8.62447 15.1615 5.73921C15.0319 5.43902 14.7874 5.19032 14.6109 4.90849C13.8007 3.61478 13.0595 3.53631 12.2568 5.27837Z" fill="#6588C5"/>
<path d="M28.7612 23.8026C28.5844 23.5905 28.5018 23.4861 28.424 23.3783C26.1094 20.1701 26.0216 19.6461 30.0233 18.973C34.3109 18.2518 36.4956 15.7058 38.4806 12.3793C39.9296 9.95089 40.8129 9.90528 42.0233 12.3485C44.0485 16.4367 47.1623 18.6295 51.6461 19.2816C53.9591 19.618 54.2235 20.7851 52.7629 22.5512C52.086 23.3697 51.4982 24.2742 50.7506 25.0195C49.2466 26.519 48.5295 28.2068 48.8079 30.379C48.993 31.8224 48.8957 33.3041 48.8957 34.7686C48.8957 36.2656 48.1013 36.6239 46.7982 36.156C46.4245 36.0219 46.051 35.8635 45.7128 35.6577C41.7671 33.2569 37.92 34.1375 34.0475 35.9079C32.0542 36.8191 31.5156 36.4266 31.4965 34.3016C31.4869 33.2367 31.3395 32.1314 31.5656 31.1137C32.2404 28.0748 30.8388 25.9016 28.7612 23.8026ZM34.0974 29.0595C34.0974 30.366 34.0974 31.6725 34.0974 33.2694C35.0692 32.9611 35.8039 32.8551 36.4069 32.5149C39.08 31.0064 41.6464 31.2307 44.3435 32.5621C46.3292 33.5424 46.7387 33.2606 46.5024 31.042C46.1632 27.8566 46.8489 25.2094 49.2976 23.0005C50.6023 21.8236 50.3471 21.0684 48.5966 20.8504C45.4087 20.4534 43.0821 19.0864 41.6155 16.09C40.6978 14.215 39.8547 14.2463 38.9145 16.0742C37.4995 18.825 35.4402 20.4037 32.3347 20.8104C30.1238 21.1 30.1305 21.3952 31.4107 23.2007C32.5972 24.874 34.6437 26.1566 34.0974 29.0595Z" fill="#6588C5"/>
</svg>
